<svg width="56" height="20" viewBox="0 0 56 20" fill="none" xmlns="http://www.w3.org/2000/svg">
<g clip-path="url(#clip0_689_7955)">
<path d="M20.6731 18.8126C20.0251 18.6981 19.4857 18.495 19.0537 18.2019C18.6205 17.9088 18.2854 17.5655 18.046 17.1732C17.8066 16.7809 17.6548 16.3571 17.5941 15.904C17.5322 15.451 17.5416 14.998 17.621 14.5437L20.0309 0.870972L23.1882 1.42792L20.8121 14.9057C20.7467 15.2782 20.7817 15.5759 20.9172 15.8001C21.0526 16.0243 21.3235 16.1726 21.7275 16.2438L22.9418 16.4575L22.4713 19.129L20.6743 18.8126H20.6731Z" fill="black"/>
<path d="M35.0824 15.1521C34.8863 15.9262 34.5033 16.6151 33.9335 17.2187C33.5424 17.6426 33.0204 18.0092 32.3689 18.3186C31.7162 18.628 30.9176 18.7833 29.973 18.7833C29.0284 18.7833 28.232 18.628 27.5887 18.3186C26.9442 18.0092 26.4269 17.6426 26.0358 17.2187C25.4648 16.6162 25.0818 15.9274 24.8868 15.1521C24.6907 14.3779 24.5938 13.4123 24.5938 12.254C24.5938 11.0958 24.6918 10.1348 24.8868 9.36886C25.083 8.60291 25.4648 7.91752 26.0358 7.31503C26.4269 6.89119 26.9442 6.52456 27.5887 6.21514C28.232 5.90572 29.0272 5.75043 29.973 5.75043C30.9187 5.75043 31.7174 5.90572 32.3689 6.21514C33.0204 6.52456 33.5424 6.89235 33.9335 7.31503C34.5045 7.91869 34.8875 8.60291 35.0824 9.36886C35.2786 10.1348 35.3755 11.0969 35.3755 12.254C35.3755 13.4111 35.2774 14.3779 35.0824 15.1521ZM32.0747 10.4571C31.9929 9.92698 31.7898 9.49964 31.4628 9.17271C31.088 8.7979 30.5906 8.60992 29.9706 8.60992C29.3506 8.60992 28.8777 8.7979 28.5029 9.17271C28.1772 9.49847 27.9728 9.92698 27.8911 10.4571C27.8094 10.9872 27.7685 11.5862 27.7685 12.254C27.7685 12.9219 27.8094 13.5256 27.8911 14.0638C27.9728 14.6021 28.176 15.0341 28.5029 15.3599C28.8777 15.7347 29.367 15.9227 29.9706 15.9227C30.5743 15.9227 31.0869 15.7359 31.4628 15.3599C31.7886 15.0341 31.9929 14.6021 32.0747 14.0638C32.1564 13.5256 32.1973 12.9231 32.1973 12.254C32.1973 11.585 32.1564 10.9872 32.0747 10.4571Z" fill="black"/>
<path d="M42.88 18.4832C42.232 18.5977 41.6552 18.5907 41.1484 18.4634C40.6417 18.3361 40.2085 18.1283 39.8489 17.8411C39.4892 17.5538 39.2032 17.2082 38.9895 16.8031C38.7758 16.3991 38.6299 15.9694 38.5493 15.5163L36.1382 1.84357L39.2954 1.28662L41.6715 14.7644C41.7369 15.1369 41.8723 15.4054 42.0767 15.5689C42.281 15.7335 42.5858 15.7802 42.9898 15.7078L44.2041 15.4942L44.6746 18.1657L42.8777 18.4821L42.88 18.4832Z" fill="black"/>
<path d="M52.8887 18.6608V17.5585C52.4636 17.9835 52.0188 18.293 51.5529 18.4891C51.087 18.6853 50.4869 18.7834 49.7524 18.7834C48.3314 18.7834 47.2456 18.4074 46.4936 17.6566C46.1503 17.297 45.8888 16.8731 45.7101 16.3827C45.5303 15.8923 45.4404 15.3622 45.4404 14.7901C45.4404 14.2845 45.5303 13.8058 45.7101 13.3574C45.89 12.9079 46.1597 12.5168 46.5181 12.1817C46.8778 11.8466 47.3308 11.5815 47.8772 11.3853C48.4249 11.1892 49.0659 11.0911 49.8003 11.0911H52.8139V10.4536C52.8139 9.75185 52.6306 9.24044 52.2628 8.92285C51.895 8.60409 51.2867 8.44529 50.4378 8.44529C50.1272 8.44529 49.8575 8.46631 49.6298 8.50601C49.401 8.54687 49.1931 8.60876 49.0052 8.68932C48.8172 8.77106 48.642 8.87731 48.4786 9.00808C48.3151 9.13886 48.1516 9.30232 47.9882 9.49848L45.9553 7.51353C46.5753 6.82698 47.2327 6.36227 47.9275 6.11707C48.621 5.87187 49.4991 5.74927 50.5616 5.74927C52.3586 5.74927 53.713 6.12524 54.6284 6.87602C55.5426 7.62796 56.0003 8.75471 56.0003 10.2574V18.6608H52.8887ZM52.8151 13.271H50.2919C49.7197 13.271 49.2796 13.3983 48.969 13.6505C48.6584 13.9039 48.5031 14.2588 48.5031 14.7166C48.5031 15.1743 48.6537 15.5129 48.9561 15.7826C49.2585 16.0523 49.7197 16.1866 50.3397 16.1866C50.7811 16.1866 51.1559 16.1539 51.4665 16.0885C51.7771 16.0231 52.0702 15.8515 52.348 15.5736C52.6586 15.2793 52.8139 14.7411 52.8139 13.9564V13.2699L52.8151 13.271Z" fill="black"/>
<path d="M15.0309 16.5509L9.43569 1.22595H6.74784L1.17247 16.5521C0.777821 17.6368 1.58114 18.7834 2.73474 18.7834H2.74642C3.4575 18.7834 4.09035 18.3303 4.32037 17.6578L8.177 6.40432L11.8912 17.6461C12.1177 18.3257 12.7529 18.7834 13.4686 18.7834C14.6234 18.7834 15.4267 17.6356 15.0309 16.5509Z" fill="black"/>
<path d="M8.1946 12.7071C6.13259 12.7071 4.2609 11.8781 2.89479 10.5354C2.01323 9.669 0.52569 10.0286 0.103013 11.1904C-0.128176 11.8256 0.0352907 12.5367 0.519852 13.0084C2.50013 14.942 5.20784 16.1341 8.1946 16.1341C11.1814 16.1341 13.7419 15.0038 15.707 13.1613C16.208 12.692 16.3773 11.9669 16.1426 11.3223C15.7246 10.1781 14.2662 9.80795 13.38 10.644C12.0256 11.9225 10.2006 12.7071 8.19577 12.7071H8.1946Z" fill="#FF54BC"/>
</g>
<defs>
<clipPath id="clip0_689_7955">
<rect width="56.0008" height="18.258" fill="white" transform="translate(-0.000488281 0.870972)"/>
</clipPath>
</defs>
</svg>
